# xmcd
#
# Track frame offsets: 
#        150
#        18044
#        34517
#        52115
#        69481
#        88565
#        106624
#        122013
#        134674
#        155315
#        169671
#
# Disc length: 2455 seconds
#
# Revision: 0
# Processed by: cddbd v1.5.2PL0 Copyright (c) Steve Scherf et al.
# Submitted via: ExactAudioCopy v1.0b3
#
DISCID=8209950b
DTITLE=Stan Borys - Ikona
DYEAR=2014
DGENRE=Blues
TTITLE0=Ikona
TTITLE1=Bajdary
TTITLE2=Tworzywo
TTITLE3=Kyrie
TTITLE4=Pytasz co w moim życiu
TTITLE5=Krzyczę przez sen
TTITLE6=Stokrocie
TTITLE7=Prześliczna Zuzanna
TTITLE8=Znieczulica
TTITLE9=Zakopane serce gór
TTITLE10=Szukam przyjaciela
EXTD=
EXTT0=
EXTT1=
EXTT2=
EXTT3=
EXTT4=
EXTT5=
EXTT6=
EXTT7=
EXTT8=
EXTT9=
EXTT10=
PLAYORDER=
